HIERARCHY
ROOT Hips
{
	OFFSET	0.00	0.00	0.00
	CHANNELS 6 Xposition Yposition Zposition Zrotation Xrotation Yrotation
	JOINT LeftUpLeg
	{
		OFFSET	 0.126116	-0.014019	-0.065224
		CHANNELS 3 Zrotation Xrotation Yrotation
		JOINT LeftLeg
		{
			OFFSET	 0.000000	 0.000000	 0.569914
			CHANNELS 3 Zrotation Xrotation Yrotation
			JOINT LeftFoot
			{
				OFFSET	 0.000000	 0.000000	 0.544423
				CHANNELS 3 Zrotation Xrotation Yrotation
				JOINT LeftToeBase
				{
					OFFSET	 0.000000	 0.000000	 0.207117
					CHANNELS 3 Zrotation Xrotation Yrotation
					End Site
					{
						OFFSET	 0.000000	 0.000000	 0.207117
					}
				}
			}
		}
	}
	JOINT RightUpLeg
	{
		OFFSET	-0.124023	-0.008373	-0.065224
		CHANNELS 3 Zrotation Xrotation Yrotation
		JOINT RightLeg
		{
			OFFSET	 0.000000	 0.000000	 0.570047
			CHANNELS 3 Zrotation Xrotation Yrotation
			JOINT RightFoot
			{
				OFFSET	 0.000000	 0.000000	 0.544354
				CHANNELS 3 Zrotation Xrotation Yrotation
				JOINT RightToeBase
				{
					OFFSET	 0.000000	 0.000000	 0.207540
					CHANNELS 3 Zrotation Xrotation Yrotation
					End Site
					{
						OFFSET	 0.000000	 0.000000	 0.207540
					}
				}
			}
		}
	}
	JOINT Spine
	{
		OFFSET	 0.000184	-0.007763	 0.117403
		CHANNELS 3 Zrotation Xrotation Yrotation
		JOINT Spine1
		{
			OFFSET	 0.000000	 0.000000	 0.137269
			CHANNELS 3 Zrotation Xrotation Yrotation
			JOINT Spine2
			{
				OFFSET	 0.000000	 0.000000	 0.156879
				CHANNELS 3 Zrotation Xrotation Yrotation
				JOINT LeftShoulder
				{
					OFFSET	 0.080501	-0.002496	 0.160144
					CHANNELS 3 Zrotation Xrotation Yrotation
					JOINT LeftArm
					{
						OFFSET	 0.000000	 0.000000	 0.164363
						CHANNELS 3 Zrotation Xrotation Yrotation
						JOINT LeftForeArm
						{
							OFFSET	 0.000000	 0.000000	 0.364576
							CHANNELS 3 Zrotation Xrotation Yrotation
							JOINT LeftHand
							{
								OFFSET	 0.000000	 0.000000	 0.360812
								CHANNELS 3 Zrotation Xrotation Yrotation
								JOINT LeftHandIndex1
								{
									OFFSET	 0.000000	 0.000000	 0.086006
									CHANNELS 3 Zrotation Xrotation Yrotation
									JOINT LeftHandIndex2
									{
										OFFSET	 0.000000	 0.000000	 0.047237
										CHANNELS 3 Zrotation Xrotation Yrotation
										JOINT LeftHandIndex3
										{
											OFFSET	-0.004284	-0.000551	 0.038165
											CHANNELS 3 Zrotation Xrotation Yrotation
											End Site
											{
												OFFSET	-0.004284	-0.000551	 0.038165
											}
										}
									}
								}
							}
						}
					}
				}
				JOINT Neck
				{
					OFFSET	 0.000000	 0.000000	 0.176489
					CHANNELS 3 Zrotation Xrotation Yrotation
					JOINT Head
					{
						OFFSET	 0.000000	-0.001747	 0.077940
						CHANNELS 3 Zrotation Xrotation Yrotation
						End Site
						{
							OFFSET	 0.000000	-0.001747	 0.077940
						}
					}
				}
				JOINT RightShoulder
				{
					OFFSET	-0.080363	 0.000306	 0.159706
					CHANNELS 3 Zrotation Xrotation Yrotation
					JOINT RightArm
					{
						OFFSET	 0.000000	 0.000000	 0.164196
						CHANNELS 3 Zrotation Xrotation Yrotation
						JOINT RightForeArm
						{
							OFFSET	 0.000000	 0.000000	 0.365611
							CHANNELS 3 Zrotation Xrotation Yrotation
							JOINT RightHand
							{
								OFFSET	 0.000000	 0.000000	 0.360648
								CHANNELS 3 Zrotation Xrotation Yrotation
								JOINT RightHandIndex1
								{
									OFFSET	 0.000000	 0.000000	 0.069977
									CHANNELS 3 Zrotation Xrotation Yrotation
									JOINT RightHandIndex2
									{
										OFFSET	 0.000000	 0.000000	 0.052305
										CHANNELS 3 Zrotation Xrotation Yrotation
										JOINT RightHandIndex3
										{
											OFFSET	 0.009002	-0.000782	 0.042196
											CHANNELS 3 Zrotation Xrotation Yrotation
											End Site
											{
												OFFSET	 0.009002	-0.000782	 0.042196
											}
										}
									}
								}
							}
						}
					}
				}
			}
		}
	}
}
MOTION
Frames:    8
Frame Time: 0.03333334
-0.446878	-0.033230	 1.271681	-179.866600	-2.762837	 0.482973	 8.834356	 0.767048	 177.114400	-1.986513	-11.927790	-0.526942	-19.531270	 70.849310	 5.942531	-2.385833	 28.452760	 0.000004	 14.753300	 1.236011	 179.075300	-0.779175	-11.029790	-0.440611	 25.393270	 69.373520	-8.270478	 2.384659	 28.388700	-0.000001	-1.355804	 8.932243	-1.206236	 0.064735	-4.015097	 1.015166	 1.212018	 3.703507	 0.075902	-91.776180	 78.527420	-180.000000	-22.927950	-6.804184	-3.045363	 2.926139	-2.394696	-25.926610	-1.171242	-11.263470	-2.776920	-4.130319	 21.525730	 0.991547	-5.167930	 0.731704	 3.519349	-1.378229	 35.397820	-2.634230	-1.596483	-1.202781	 0.805407	-12.006930	-19.538350	-7.886824	 89.782100	 78.203870	-180.000000	 9.864818	-11.390090	 2.903121	-14.629250	-3.508813	 22.086190	-1.293736	 38.053690	 71.166690	 5.716227	 19.173190	-3.685159	 5.027444	 0.246877	-9.377972	-2.350882	 35.473990	 5.254307
-0.447120	-0.033250	 1.271597	-179.843900	-3.325239	 0.609209	 12.489640	 1.003811	 176.453900	-3.663946	-12.176070	-0.892760	-14.490290	 71.136710	 2.194319	-2.385833	 28.452760	 0.000004	 15.243010	 1.781223	 178.773300	 0.220639	-11.025120	-0.249037	 21.479070	 69.246710	-5.127894	 2.384659	 28.388700	-0.000001	-1.156976	 9.464098	-1.509042	 0.152340	-2.911829	 0.974859	 0.873184	 1.893492	 0.437357	-91.776210	 78.527400	-180.000000	-28.624150	-4.938150	-2.579957	 2.329086	-2.327664	-28.290910	-0.733253	-12.351800	-2.370617	-4.130319	 21.525730	 0.991547	-5.167930	 0.731704	 3.519349	-1.378229	 35.397820	-2.634230	-1.924751	-0.685982	 1.004228	-12.532140	-21.677010	-9.448112	 89.782070	 78.203870	-180.000000	 13.292660	-10.251900	 2.168079	-15.161580	-4.270949	 24.913050	-3.705812	 42.852130	 82.437320	 5.716227	 19.173190	-3.685159	 5.027444	 0.246877	-9.377972	-2.350882	 35.473990	 5.254307
-0.447604	-0.033360	 1.271350	-179.734100	-4.415288	 1.085164	 20.007790	 0.486970	 174.724000	-7.255786	-14.088250	-1.914026	-3.018752	 72.255990	-6.599634	-2.385833	 28.452760	 0.000004	 16.060310	 2.414998	 178.048800	 2.277071	-11.776320	 0.153978	 11.902250	 69.068600	 3.123340	 2.384659	 28.388700	-0.000001	-0.759401	 10.427800	-2.324269	 0.283892	-0.491648	 0.662743	 0.149917	-1.957475	 1.288939	-91.776210	 78.527400	-180.000000	-45.097250	 1.303036	 1.737920	 0.889363	-2.311842	-38.767480	-0.072524	-13.722700	-1.744907	-4.130319	 21.525730	 0.991547	-5.167930	 0.731704	 3.519349	-1.378229	 35.397820	-2.634230	-2.668223	 0.469035	 1.538998	-14.011030	-26.263630	-13.205860	 89.782160	 78.203830	 180.000000	 24.418200	-6.410224	-1.453835	-15.538600	-6.974966	 36.007140	-8.623771	 55.586190	 103.099400	 5.716227	 19.173190	-3.685159	 5.027444	 0.246877	-9.377972	-2.350882	 35.473990	 5.254307
-0.447949	-0.033662	 1.270577	-179.552900	-4.708157	 1.620015	 22.640360	-1.377370	 173.740800	-8.841777	-17.790360	-2.896625	-1.389607	 73.958680	-6.949400	-2.385833	 28.452760	 0.000004	 15.753810	 1.355414	 177.836600	 3.095552	-14.452460	 0.392652	 8.568161	 69.793720	 5.922906	 2.384659	 28.388700	-0.000001	-0.816454	 10.677950	-2.709297	 0.268644	 0.498747	-0.251384	-0.223323	-3.427157	 2.049190	-91.776150	 78.527360	 180.000000	-51.158100	 5.814469	 10.629220	-0.323204	-2.483428	-56.175950	-0.509326	-12.757300	-2.017059	-4.130319	 21.525730	 0.991547	-5.167930	 0.731704	 3.519349	-1.378229	 35.397820	-2.634230	-3.018283	 1.007445	 1.956841	-14.923720	-28.071190	-15.188930	 89.782100	 78.203890	 180.000000	 29.381170	-3.428159	-8.086756	-13.300430	-9.877844	 53.447620	-1.891689	 61.225350	 99.781330	 5.716227	 19.173190	-3.685159	 5.027444	 0.246877	-9.377972	-2.350882	 35.473990	 5.254307
-0.448333	-0.034185	 1.269198	-179.335200	-4.779963	 1.851203	 23.053710	-3.372215	 173.413100	-9.714138	-22.249890	-3.926914	-2.402708	 76.502470	-5.385596	-2.385833	 28.452760	 0.000004	 15.344580	-0.531516	 178.252000	 3.537080	-18.667430	 0.645005	 8.726268	 71.695030	 5.347489	 2.384659	 28.388700	-0.000001	-1.280489	 10.750790	-2.783535	-0.093419	 1.078138	-0.873290	-0.234014	-4.049437	 2.504360	-91.776200	 78.527380	-180.000000	-51.200240	 10.774320	 20.818380	-1.352398	-2.677283	-76.677350	-0.727080	-12.419140	-2.111985	-4.130319	 21.525730	 0.991547	-5.167930	 0.731704	 3.519349	-1.378229	 35.397820	-2.634230	-3.167050	 1.220319	 2.219345	-15.334520	-28.718590	-16.291980	 89.782120	 78.203900	 180.000000	 30.810150	 0.715836	-14.889400	-9.409815	-11.825530	 74.024830	 18.174720	 61.708410	 76.268420	 5.716227	 19.173190	-3.685159	 5.027444	 0.246877	-9.377972	-2.350882	 35.473990	 5.254307
-0.448671	-0.034745	 1.267706	-179.151700	-4.687870	 1.831827	 22.031230	-4.873325	 173.594600	-9.908746	-26.022530	-4.635210	-6.024933	 78.907290	-1.786713	-2.385833	 28.452760	 0.000004	 15.035540	-2.291535	 178.990600	 3.628136	-22.428430	 0.803611	 11.845550	 73.644990	 1.930333	 2.384659	 28.388700	-0.000001	-1.893023	 10.680380	-2.645540	-0.470354	 1.280670	-1.161535	-0.174821	-3.992124	 2.663553	-91.776250	 78.527380	-179.999900	-46.261230	 15.856680	 27.484260	-2.129869	-2.865242	-92.871650	-0.612135	-12.578170	-2.107624	-4.130319	 21.525730	 0.991547	-5.167930	 0.731704	 3.519349	-1.378229	 35.397820	-2.634230	-3.146823	 1.172473	 2.312227	-15.280800	-28.477740	-16.514050	 89.782110	 78.203890	 180.000000	 29.096240	 5.424199	-18.425620	-5.979854	-12.057410	 90.346760	 33.134930	 55.255740	 52.737880	 5.716227	 19.173190	-3.685159	 5.027444	 0.246877	-9.377972	-2.350882	 35.473990	 5.254307
-0.449318	-0.035726	 1.265136	-178.866400	-4.564877	 1.784183	 20.794910	-6.938671	 173.854400	-10.454680	-31.456860	-5.800839	-14.338630	 82.265150	 6.597380	-2.385833	 28.452760	 0.000004	 14.693590	-4.676933	-179.726300	 3.832233	-27.649330	 1.072239	 17.952400	 76.160990	-4.708768	 2.384659	 28.388700	-0.000001	-2.887446	 10.608460	-2.414859	-1.102427	 1.701990	-1.633538	-0.121253	-4.054767	 2.938765	-91.776230	 78.527400	-179.999900	-35.130710	 28.586060	 30.669000	-3.112376	-2.740058	-112.352700	-0.524728	-12.674010	-2.105031	-4.130319	 21.525730	 0.991547	-5.167930	 0.731704	 3.519349	-1.378229	 35.397820	-2.634230	-3.112741	 1.023012	 2.269077	-15.193110	-28.148340	-16.482140	 89.782110	 78.203890	 180.000000	 24.366730	 17.786880	-17.481640	-2.134185	-10.791830	 110.091900	 40.031310	 41.079280	 27.407430	 5.716227	 19.173190	-3.685159	 5.027444	 0.246877	-9.377972	-2.350882	 35.473990	 5.254307
-0.450033	-0.036641	 1.262794	-178.601800	-4.472176	 1.722201	 19.991000	-8.447853	 174.075200	-11.149280	-35.653140	-6.889175	-26.989740	 84.663180	 19.401400	-2.385833	 28.452760	 0.000004	 14.488640	-6.418460	-178.516800	 4.073280	-31.572260	 1.336080	 24.375860	 77.825470	-11.640820	 2.384659	 28.388700	-0.000001	-3.774215	 10.576000	-2.195520	-1.660197	 2.117490	-2.042201	-0.108347	-4.205443	 3.190470	-91.776180	 78.527420	-180.000000	-17.265220	 42.938490	 18.955610	-3.496422	-2.556957	-120.580000	-0.518823	-12.629160	-2.108807	-4.130319	 21.525730	 0.991547	-5.167930	 0.731704	 3.519349	-1.378229	 35.397820	-2.634230	-3.079816	 0.819864	 2.065124	-15.111400	-27.885230	-16.121040	 89.782120	 78.203920	 180.000000	 13.833160	 32.965240	-6.361793	-0.873104	-9.417498	 118.984100	 33.357250	 28.084560	 11.962060	 5.716227	 19.173190	-3.685159	 5.027444	 0.246877	-9.377972	-2.350882	 35.473990	 5.254307
